<?xml version="1.0" encoding="UTF-8"?>
<!DOCTYPE svg PUBLIC "-//W3C//DTD SVG 1.1//EN" "http://www.w3.org/Graphics/SVG/1.1/DTD/svg11.dtd">
<svg version="1.2" width="31.22mm" height="7.32mm" viewBox="0 0 3122 732" preserveAspectRatio="xMidYMid" fill-rule="evenodd" stroke-width="28.222" stroke-linejoin="round" xmlns="http://www.w3.org/2000/svg" xmlns:ooo="http://xml.openoffice.org/svg/export" xmlns:xlink="http://www.w3.org/1999/xlink" xmlns:presentation="http://sun.com/xmlns/staroffice/presentation" xmlns:smil="http://www.w3.org/2001/SMIL20/" xmlns:anim="urn:oasis:names:tc:opendocument:xmlns:animation:1.0" xml:space="preserve">
 <defs class="ClipPathGroup">
  <clipPath id="presentation_clip_path" clipPathUnits="userSpaceOnUse">
   <rect x="0" y="0" width="3122" height="732"/>
  </clipPath>
  <clipPath id="presentation_clip_path_shrink" clipPathUnits="userSpaceOnUse">
   <rect x="3" y="0" width="3116" height="731"/>
  </clipPath>
 </defs>
 <defs class="TextShapeIndex">
  <g ooo:slide="id1" ooo:id-list="id3"/>
 </defs>
 <defs class="EmbeddedBulletChars">
  <g id="bullet-char-template-57356" transform="scale(0.00048828125,-0.00048828125)">
   <path d="M 580,1141 L 1163,571 580,0 -4,571 580,1141 Z"/>
  </g>
  <g id="bullet-char-template-57354" transform="scale(0.00048828125,-0.00048828125)">
   <path d="M 8,1128 L 1137,1128 1137,0 8,0 8,1128 Z"/>
  </g>
  <g id="bullet-char-template-10146" transform="scale(0.00048828125,-0.00048828125)">
   <path d="M 174,0 L 602,739 174,1481 1456,739 174,0 Z M 1358,739 L 309,1346 659,739 1358,739 Z"/>
  </g>
  <g id="bullet-char-template-10132" transform="scale(0.00048828125,-0.00048828125)">
   <path d="M 2015,739 L 1276,0 717,0 1260,543 174,543 174,936 1260,936 717,1481 1274,1481 2015,739 Z"/>
  </g>
  <g id="bullet-char-template-10007" transform="scale(0.00048828125,-0.00048828125)">
   <path d="M 0,-2 C -7,14 -16,27 -25,37 L 356,567 C 262,823 215,952 215,954 215,979 228,992 255,992 264,992 276,990 289,987 310,991 331,999 354,1012 L 381,999 492,748 772,1049 836,1024 860,1049 C 881,1039 901,1025 922,1006 886,937 835,863 770,784 769,783 710,716 594,584 L 774,223 C 774,196 753,168 711,139 L 727,119 C 717,90 699,76 672,76 641,76 570,178 457,381 L 164,-76 C 142,-110 111,-127 72,-127 30,-127 9,-110 8,-76 1,-67 -2,-52 -2,-32 -2,-23 -1,-13 0,-2 Z"/>
  </g>
  <g id="bullet-char-template-10004" transform="scale(0.00048828125,-0.00048828125)">
   <path d="M 285,-33 C 182,-33 111,30 74,156 52,228 41,333 41,471 41,549 55,616 82,672 116,743 169,778 240,778 293,778 328,747 346,684 L 369,508 C 377,444 397,411 428,410 L 1163,1116 C 1174,1127 1196,1133 1229,1133 1271,1133 1292,1118 1292,1087 L 1292,965 C 1292,929 1282,901 1262,881 L 442,47 C 390,-6 338,-33 285,-33 Z"/>
  </g>
  <g id="bullet-char-template-9679" transform="scale(0.00048828125,-0.00048828125)">
   <path d="M 813,0 C 632,0 489,54 383,161 276,268 223,411 223,592 223,773 276,916 383,1023 489,1130 632,1184 813,1184 992,1184 1136,1130 1245,1023 1353,916 1407,772 1407,592 1407,412 1353,268 1245,161 1136,54 992,0 813,0 Z"/>
  </g>
  <g id="bullet-char-template-8226" transform="scale(0.00048828125,-0.00048828125)">
   <path d="M 346,457 C 273,457 209,483 155,535 101,586 74,649 74,723 74,796 101,859 155,911 209,963 273,989 346,989 419,989 480,963 531,910 582,859 608,796 608,723 608,648 583,586 532,535 482,483 420,457 346,457 Z"/>
  </g>
  <g id="bullet-char-template-8211" transform="scale(0.00048828125,-0.00048828125)">
   <path d="M -4,459 L 1135,459 1135,606 -4,606 -4,459 Z"/>
  </g>
  <g id="bullet-char-template-61548" transform="scale(0.00048828125,-0.00048828125)">
   <path d="M 173,740 C 173,903 231,1043 346,1159 462,1274 601,1332 765,1332 928,1332 1067,1274 1183,1159 1299,1043 1357,903 1357,740 1357,577 1299,437 1183,322 1067,206 928,148 765,148 601,148 462,206 346,322 231,437 173,577 173,740 Z"/>
  </g>
 </defs>
 <g>
  <g id="id2" class="Master_Slide">
   <g id="bg-id2" class="Background"/>
   <g id="bo-id2" class="BackgroundObjects"/>
  </g>
 </g>
 <g class="SlideGroup">
  <g>
   <g id="container-id1">
    <g id="id1" class="Slide" clip-path="url(#presentation_clip_path)">
     <g class="Page">
      <g class="Graphic">
       <g id="id3">
        <rect class="BoundingBox" stroke="none" fill="none" x="0" y="0" width="3122" height="732"/>
        <defs>
         <clipPath id="clip_path_1" clipPathUnits="userSpaceOnUse">
          <path d="M 0,0 L 3121,0 3121,731 0,731 0,0 Z"/>
         </clipPath>
        </defs>
        <g clip-path="url(#clip_path_1)">
         <path fill="rgb(0,0,0)" stroke="none" d="M 712,250 L 629,141 416,290 435,0 298,18 320,276 79,115 26,242 262,352 0,481 84,590 297,442 278,732 414,713 393,454 635,616 688,489 453,378 712,250 Z M 888,427 C 888,423 888,419 888,414 889,413 890,413 891,412 893,411 895,411 897,411 899,411 901,411 903,412 904,413 905,413 906,414 917,449 940,481 972,481 973,481 973,481 974,481 980,481 985,480 990,477 995,474 1000,470 1003,465 1005,460 1007,454 1007,448 1007,448 1007,447 1007,447 1007,424 987,409 965,399 933,382 899,359 899,320 899,271 940,243 991,243 992,243 992,243 992,243 1012,243 1031,247 1049,255 1055,272 1058,289 1058,307 1058,310 1058,312 1058,315 1057,317 1056,318 1054,319 1052,320 1050,320 1048,320 1046,320 1044,320 1042,319 1042,319 1041,319 1041,318 1032,290 1012,266 988,266 988,266 987,266 987,266 981,266 975,267 970,270 965,273 961,277 958,282 955,287 954,292 954,298 954,316 972,329 995,340 1029,356 1064,377 1064,426 1064,479 1016,503 967,503 965,503 964,503 962,503 942,503 922,498 904,487 902,486 899,485 897,483 891,465 888,446 888,427 Z M 1173,420 C 1173,462 1175,468 1194,473 L 1203,473 C 1207,477 1206,488 1203,490 L 1082,490 C 1077,487 1076,477 1082,473 L 1094,472 C 1113,469 1116,463 1116,421 L 1116,337 C 1116,311 1116,305 1101,296 L 1094,292 C 1094,290 1093,288 1093,286 1093,283 1094,281 1094,279 1119,271 1144,261 1166,249 1166,249 1167,249 1167,249 1168,249 1169,249 1171,250 1172,250 1173,251 1174,252 1174,253 1174,253 1174,253 1174,257 1173,262 1173,266 1173,271 1174,275 1174,279 1174,283 1175,284 1179,285 1184,281 1188,278 1194,275 1213,264 1234,258 1257,257 1303,257 1324,288 1324,333 L 1324,421 C 1324,463 1326,469 1345,472 L 1358,473 C 1362,477 1362,488 1358,490 L 1236,490 C 1232,487 1231,477 1236,473 L 1245,473 C 1264,470 1267,463 1267,420 L 1267,343 C 1267,315 1255,290 1221,290 1221,290 1220,290 1220,290 1212,290 1204,293 1197,297 1192,300 1187,304 1184,308 1176,318 1176,324 1176,344 L 1173,420 Z M 1599,373 C 1599,376 1599,378 1599,380 1599,400 1594,420 1583,438 1573,456 1559,470 1541,480 1523,491 1503,496 1483,496 1480,496 1477,496 1475,496 1472,496 1469,496 1467,496 1447,496 1428,491 1411,481 1394,471 1380,457 1370,440 1360,423 1355,404 1355,384 1355,383 1355,381 1355,380 1355,379 1355,378 1355,377 1355,356 1360,335 1371,317 1381,298 1397,283 1415,273 1433,262 1454,256 1475,256 1477,256 1478,256 1479,256 1481,256 1483,256 1485,256 1505,256 1525,262 1542,272 1559,282 1574,296 1584,313 1594,330 1599,350 1599,370 1599,371 1599,372 1599,373 L 1599,373 Z M 1481,473 C 1520,473 1532,427 1532,383 1532,335 1515,279 1473,279 1444,279 1420,309 1420,372 1420,424 1439,473 1480,473 L 1481,473 Z M 1844,282 C 1834,284 1829,285 1829,289 1830,294 1831,298 1833,302 1843,330 1870,388 1880,412 1890,393 1912,336 1920,314 1923,307 1925,299 1926,290 1926,287 1922,285 1915,283 L 1896,279 C 1895,278 1895,278 1894,277 1893,275 1893,273 1893,271 1893,269 1893,267 1894,265 1895,264 1895,263 1896,263 L 1987,263 C 1992,265 1993,275 1989,279 L 1978,282 C 1963,286 1958,289 1946,317 L 1912,396 C 1899,425 1885,462 1873,493 1872,493 1872,494 1871,494 1869,496 1866,496 1864,496 1864,496 1864,496 1864,496 1863,496 1863,496 1863,496 1860,496 1858,495 1855,494 1855,494 1854,493 1853,493 1833,443 1803,376 1786,339 1769,375 1730,461 1719,493 1718,493 1717,494 1717,494 1715,496 1712,496 1710,496 1710,496 1710,496 1709,496 1709,496 1709,496 1709,496 1706,496 1703,495 1701,494 1700,494 1700,493 1699,493 1695,480 1683,450 1671,424 1659,398 1641,354 1618,302 1617,301 1617,299 1616,298 1613,293 1609,289 1604,286 1600,284 1596,282 1591,282 L 1582,280 C 1582,279 1581,279 1581,278 1580,277 1579,274 1579,272 1579,270 1580,268 1581,266 1582,265 1583,264 1584,263 L 1700,263 C 1700,264 1701,265 1701,265 1703,267 1703,269 1703,271 1703,274 1703,276 1701,278 1701,278 1700,279 1700,280 L 1690,283 C 1682,285 1677,287 1677,290 1678,297 1680,303 1683,309 L 1698,346 C 1709,372 1722,402 1726,413 1732,402 1741,381 1746,368 L 1762,330 C 1766,323 1768,315 1768,307 1768,304 1768,302 1768,300 1763,288 1756,285 1743,282 L 1732,279 C 1732,279 1731,278 1731,277 1730,276 1729,274 1729,272 1729,270 1730,268 1731,266 1731,265 1732,264 1734,263 L 1850,263 C 1851,264 1852,265 1853,266 1854,268 1854,269 1854,271 1854,273 1854,275 1853,277 1852,278 1851,279 1850,279 L 1844,282 Z M 2114,337 C 2114,311 2114,307 2100,297 L 2093,292 C 2093,292 2093,292 2093,292 2092,290 2091,288 2091,286 2091,284 2092,282 2093,280 2093,280 2093,280 2093,279 2117,272 2140,263 2162,250 2164,249 2166,247 2169,246 2169,246 2169,246 2169,246 2171,246 2173,246 2174,247 2175,248 2176,249 2177,250 2177,251 2178,251 2178,252 2176,259 2175,266 2175,274 2175,274 2175,274 2175,275 2175,276 2175,277 2176,278 2176,279 2177,280 2178,281 2179,281 2179,281 2179,281 2181,280 2183,279 2185,278 2204,267 2226,259 2248,256 2249,256 2249,256 2250,256 2267,256 2283,261 2298,269 2313,278 2325,290 2333,305 2342,319 2346,336 2346,353 2346,356 2346,359 2346,362 2346,364 2346,365 2346,367 2346,390 2340,412 2328,432 2317,452 2301,468 2281,479 2261,491 2239,497 2216,497 2213,497 2210,497 2207,496 2198,496 2190,496 2182,494 2177,494 2173,499 2173,510 L 2173,565 C 2173,607 2176,613 2196,616 L 2216,618 C 2220,622 2219,632 2216,635 L 2080,635 C 2075,632 2075,622 2080,618 L 2095,617 C 2114,614 2116,608 2116,566 L 2114,337 Z M 2174,425 C 2174,426 2174,426 2174,427 2174,434 2176,442 2179,448 2183,453 2187,458 2192,462 2194,463 2196,464 2198,466 2205,470 2214,472 2222,473 2261,473 2283,432 2283,380 2283,328 2255,290 2211,290 2210,290 2210,290 2209,290 2202,290 2194,292 2188,296 2185,298 2183,300 2180,302 2176,307 2174,317 2174,340 L 2174,425 Z M 2435,353 C 2424,353 2423,353 2423,361 2423,363 2423,364 2423,366 2423,381 2427,396 2434,409 2442,423 2453,433 2466,441 2479,449 2494,452 2509,453 2510,453 2511,453 2513,453 2523,453 2533,450 2542,445 2551,440 2558,433 2563,424 2564,424 2564,424 2565,424 2567,424 2569,425 2570,426 2572,427 2573,428 2574,430 2575,431 2575,432 2576,433 2574,437 2572,441 2570,445 2561,460 2548,473 2533,482 2517,491 2499,496 2481,496 2481,496 2480,496 2480,496 2479,496 2478,496 2477,496 2458,496 2440,491 2423,481 2407,472 2394,459 2384,442 2375,426 2370,408 2370,389 2370,387 2370,385 2370,382 2370,380 2370,379 2370,377 2370,356 2376,335 2386,317 2397,298 2412,283 2430,273 2448,262 2469,257 2490,257 2492,257 2494,256 2496,256 2510,256 2523,260 2535,267 2548,274 2558,284 2564,296 2571,307 2575,320 2575,333 2575,334 2575,334 2575,334 2575,338 2574,342 2572,346 2569,351 2556,354 2533,354 L 2435,353 Z M 2493,331 C 2501,331 2509,329 2516,327 2517,326 2518,324 2519,323 2520,320 2521,318 2521,315 2521,315 2521,315 2521,315 2521,314 2521,313 2521,313 2521,306 2520,300 2517,295 2513,290 2509,285 2504,282 2498,279 2492,278 2486,278 2485,278 2484,278 2484,278 2474,278 2465,281 2456,286 2448,291 2440,298 2435,307 2432,313 2429,320 2428,327 2428,329 2428,331 2436,331 L 2488,331 C 2490,331 2492,331 2493,331 Z M 2779,416 C 2777,449 2786,466 2806,466 2813,465 2819,463 2825,459 2828,459 2832,466 2830,471 2825,476 2819,481 2812,485 2800,492 2787,495 2773,495 2772,495 2772,495 2771,495 2761,495 2752,493 2744,488 2740,486 2736,483 2732,480 2728,476 2726,473 2723,473 2721,473 2717,476 2708,481 2707,482 2705,482 2704,483 2691,491 2675,495 2660,495 2658,496 2657,496 2655,496 2646,496 2637,493 2628,489 2620,484 2614,477 2609,469 2604,461 2602,452 2602,443 2602,442 2602,441 2602,441 2602,420 2610,401 2649,388 2669,381 2691,373 2712,365 2723,361 2725,356 2725,350 L 2725,335 C 2725,307 2718,283 2690,283 2689,282 2688,282 2687,282 2682,282 2678,284 2673,286 2669,289 2666,292 2663,296 2661,300 2660,303 2660,307 2660,307 2660,307 2660,308 2660,312 2659,316 2656,320 2655,323 2652,326 2649,328 2638,334 2625,338 2613,338 2605,338 2602,334 2602,329 2602,324 2605,310 2624,293 2631,287 2638,282 2646,278 2666,266 2688,259 2712,257 2757,257 2784,278 2782,328 L 2779,416 Z M 2724,396 C 2724,390 2723,386 2720,386 2711,387 2703,390 2695,393 2691,394 2687,395 2683,398 2677,401 2672,406 2669,411 2666,417 2664,423 2664,430 2664,430 2664,431 2664,431 2664,432 2664,432 2664,432 2664,438 2666,443 2668,448 2671,453 2675,457 2680,460 2685,463 2690,464 2696,464 2696,464 2696,464 2696,464 2701,464 2705,463 2709,460 2713,458 2717,455 2719,451 2721,447 2722,442 2722,438 L 2724,396 Z M 2866,177 C 2866,139 2866,135 2851,127 L 2845,123 C 2841,120 2841,111 2845,110 2867,104 2896,92 2919,83 2920,83 2920,83 2920,83 2921,83 2923,84 2924,84 2925,85 2926,86 2927,87 2927,87 2927,88 2927,88 L 2926,170 2926,350 C 2926,357 2927,358 2938,358 2949,358 2959,354 2975,336 L 2997,312 C 3009,299 3013,292 3013,289 3013,287 3011,285 3004,284 L 2989,282 C 2988,281 2987,280 2986,279 2985,278 2985,276 2985,274 2985,272 2985,270 2986,269 2987,267 2988,266 2989,265 L 3005,265 C 3035,265 3065,263 3095,260 3100,262 3100,272 3095,277 L 3084,279 C 3074,280 3065,283 3056,288 3051,291 3047,294 3043,298 3023,315 3004,332 2995,341 2994,342 2994,343 2993,343 2993,344 2992,346 2992,347 2992,349 2993,350 2993,351 2994,352 2994,352 2995,353 3019,389 3046,424 3076,457 3079,460 3083,463 3087,465 3093,469 3100,471 3108,472 L 3114,472 C 3117,477 3117,487 3112,489 L 2988,489 C 2987,488 2986,487 2985,486 2984,484 2984,482 2984,481 2984,479 2984,477 2985,475 2986,474 2987,473 2988,472 L 2994,472 C 2999,472 3004,468 3004,466 3004,463 3003,460 3001,457 3000,455 2999,453 2997,452 L 2951,387 C 2951,387 2951,387 2951,387 2949,383 2946,380 2943,378 2940,377 2937,376 2933,375 2927,375 2925,377 2925,393 L 2925,419 C 2925,461 2927,467 2946,470 L 2959,472 C 2963,476 2962,486 2959,488 L 2834,488 C 2830,486 2829,476 2834,472 L 2846,470 C 2865,467 2868,461 2868,419 L 2866,177 Z M 939,613 C 937,617 933,621 929,623 925,625 921,627 916,627 915,627 915,627 914,627 910,627 905,626 902,623 898,621 895,618 893,614 891,611 889,607 889,602 889,602 889,601 889,600 889,596 891,591 893,587 895,583 899,580 903,577 907,575 911,574 916,574 916,574 917,574 918,574 922,574 926,575 930,577 934,579 937,582 939,586 941,590 942,594 942,599 942,599 942,600 942,600 942,605 941,609 939,613 Z M 927,602 C 927,593 923,580 914,580 905,580 903,586 903,600 903,613 907,622 916,622 924,622 927,612 927,602 Z M 999,607 C 999,614 999,621 1002,621 1003,621 1004,621 1005,621 1005,621 1006,621 1007,621 1007,621 1008,621 1008,621 1008,622 1008,622 1008,623 1008,623 1008,624 1008,624 1008,624 1007,625 1007,625 1000,626 993,627 987,630 987,629 987,628 987,627 987,627 987,626 987,625 L 987,624 C 986,624 985,625 984,625 980,628 975,629 970,630 959,630 955,624 955,613 L 955,594 C 955,585 955,585 951,584 L 950,584 950,580 C 950,580 950,580 950,580 956,580 961,580 967,578 967,580 967,582 967,584 967,585 967,587 967,589 L 967,608 C 967,615 968,622 977,622 979,622 981,621 983,620 984,620 984,619 985,619 986,618 987,616 987,612 L 987,593 C 987,585 987,585 981,583 L 979,581 C 978,581 978,581 978,580 978,580 978,580 978,579 978,579 978,578 978,578 978,578 978,578 979,578 979,578 980,578 981,578 987,578 993,577 998,575 L 998,586 999,607 Z M 1032,581 C 1029,581 1029,581 1029,585 L 1029,604 C 1029,612 1029,619 1038,619 1040,619 1041,619 1043,618 1043,618 1044,617 1044,617 1044,617 1044,617 1045,617 1045,617 1045,618 1045,618 1046,618 1046,618 1046,619 1046,619 1046,619 1046,619 1044,621 1042,622 1040,624 1037,625 1034,626 1031,626 1030,626 1030,626 1030,626 1018,626 1016,619 1016,611 L 1016,584 C 1016,580 1016,580 1014,580 L 1009,580 C 1009,580 1009,579 1009,579 1009,579 1008,578 1008,578 1008,578 1009,577 1009,577 1009,577 1009,576 1009,576 1011,575 1013,575 1015,573 1017,573 1018,572 1019,571 1022,569 1024,567 1026,564 1026,564 1026,563 1026,563 1026,563 1026,563 1026,563 1027,563 1027,563 1028,563 1028,563 1029,563 1029,563 1029,563 1029,563 1029,563 L 1029,571 C 1029,573 1029,573 1032,573 L 1044,573 1044,576 C 1044,576 1044,577 1043,578 1043,578 1043,579 1042,579 L 1032,581 Z M 1097,605 C 1097,617 1097,620 1100,620 1101,621 1102,621 1103,621 1104,621 1105,621 1106,620 L 1106,625 C 1099,626 1092,627 1086,630 1086,630 1086,629 1085,629 1085,629 1085,629 1085,629 1085,628 1084,628 1084,628 L 1084,626 C 1085,626 1085,625 1085,625 1085,624 1085,624 1084,623 1083,624 1082,625 1081,625 1078,627 1074,628 1070,629 1070,629 1070,629 1070,629 1066,629 1062,627 1059,625 1055,623 1052,621 1050,617 1048,614 1047,610 1047,606 1047,605 1047,605 1047,605 1047,605 1047,605 1047,604 1047,600 1048,595 1051,590 1053,586 1057,582 1061,580 1066,578 1070,576 1075,576 1076,576 1076,576 1077,576 1078,576 1079,576 1080,576 1082,576 1083,576 1084,576 L 1084,558 C 1084,550 1084,549 1081,547 L 1079,547 1079,544 C 1079,544 1090,540 1095,538 1095,538 1095,538 1095,538 1096,538 1096,538 1096,538 1096,538 1097,538 1097,538 1097,538 1097,538 1097,538 L 1097,556 1097,605 Z M 1084,590 C 1084,590 1084,590 1084,589 1084,588 1084,586 1083,585 1083,585 1083,584 1083,584 1082,583 1081,582 1080,581 1078,580 1076,580 1075,580 1075,580 1075,580 1075,580 1066,580 1061,588 1061,599 1061,609 1067,620 1076,620 1076,620 1076,620 1076,620 1079,620 1081,619 1082,618 1083,618 1083,618 1084,617 1084,617 1084,616 1084,615 1084,615 1084,614 1084,614 L 1084,590 Z M 1158,613 C 1155,617 1152,621 1148,623 1144,625 1139,627 1135,627 1134,627 1133,627 1133,627 1128,627 1124,626 1120,623 1117,621 1114,618 1111,614 1109,611 1108,607 1108,602 1108,602 1108,601 1108,600 1108,596 1109,591 1112,587 1114,583 1117,580 1121,577 1125,575 1130,574 1135,574 1135,574 1136,574 1136,574 1141,574 1145,575 1149,577 1153,579 1156,582 1158,586 1160,590 1161,594 1161,599 1161,599 1161,600 1161,600 1161,605 1160,609 1158,613 Z M 1146,602 C 1146,593 1142,580 1133,580 1124,580 1122,586 1122,600 1122,613 1126,622 1135,622 1143,622 1146,612 1146,602 Z M 1216,613 C 1214,617 1211,621 1207,623 1203,625 1198,627 1193,627 1193,627 1192,627 1191,627 1187,627 1183,626 1179,623 1175,621 1172,618 1170,614 1168,611 1167,607 1167,602 1167,602 1167,601 1167,600 1167,596 1168,591 1170,587 1173,583 1176,580 1180,577 1184,575 1189,574 1193,574 1194,574 1194,574 1195,574 1199,574 1204,575 1207,577 1211,579 1214,582 1217,586 1219,590 1220,594 1220,599 1220,599 1220,600 1220,600 1220,605 1219,609 1216,613 Z M 1204,602 C 1204,593 1201,580 1192,580 1183,580 1180,586 1180,600 1180,613 1184,622 1193,622 1202,622 1204,612 1204,602 Z M 1232,592 C 1232,587 1232,585 1229,583 L 1227,583 C 1227,583 1227,582 1227,582 1227,581 1227,581 1227,580 1232,579 1237,576 1242,574 1242,573 1243,573 1243,573 1243,573 1244,573 1244,573 1244,573 1245,573 1245,573 L 1245,580 C 1249,578 1253,574 1257,574 1257,574 1258,574 1258,574 1259,574 1260,574 1261,575 1262,575 1263,576 1263,577 1264,578 1264,579 1264,580 1264,580 1264,580 1264,580 1264,580 1264,580 1264,580 1264,581 1264,583 1263,584 1262,585 1262,586 1261,586 1260,587 1258,587 1257,587 1257,587 1257,587 1257,587 1257,587 1256,587 1255,587 1255,587 1254,587 1254,587 1253,587 1253,586 1252,586 1251,585 1249,585 1248,585 1245,585 1244,588 1244,594 L 1244,611 C 1244,620 1244,621 1249,622 L 1254,622 1254,625 1225,625 1225,622 1227,622 C 1231,622 1231,620 1231,611 L 1232,592 Z M 1301,557 C 1301,549 1301,548 1298,546 L 1296,546 1296,543 C 1296,543 1308,540 1312,537 1312,537 1312,537 1313,537 1313,537 1313,537 1313,537 1314,537 1314,537 1314,537 1314,537 1314,537 1314,537 L 1314,610 C 1314,620 1314,621 1319,621 L 1322,621 1322,625 1295,625 1295,621 1296,621 C 1300,621 1301,620 1301,610 L 1301,557 Z M 1344,611 C 1344,620 1344,621 1349,622 L 1351,622 1351,625 1325,625 1325,622 1327,622 C 1331,622 1332,620 1332,611 L 1332,592 C 1332,587 1332,585 1329,583 L 1327,583 C 1327,583 1327,582 1327,582 1327,581 1327,581 1327,580 1333,579 1338,577 1343,574 1343,574 1344,574 1344,574 1344,574 1345,574 1345,574 L 1345,589 1344,611 Z M 1331,547 C 1332,545 1333,544 1334,544 1335,543 1336,543 1338,543 1339,543 1341,543 1342,544 1343,544 1344,545 1345,547 1345,548 1346,549 1346,551 1346,552 1345,553 1345,555 1344,556 1343,557 1342,557 1341,558 1339,559 1338,559 1338,559 1338,559 1338,559 1336,559 1335,558 1334,558 1333,557 1332,556 1331,555 1330,554 1330,552 1330,551 1330,551 1330,551 1330,551 1330,549 1330,548 1331,547 Z M 1378,582 C 1375,582 1375,582 1375,586 L 1375,611 C 1375,620 1375,621 1380,622 L 1385,622 1385,625 1355,625 1355,622 1358,622 C 1362,622 1362,620 1362,611 L 1362,586 C 1362,583 1362,582 1360,582 L 1356,582 C 1356,582 1355,582 1355,582 1355,582 1355,581 1355,581 1355,581 1355,580 1355,580 1355,580 1356,580 1356,579 L 1361,577 C 1361,577 1361,577 1361,577 1362,576 1362,576 1363,576 1363,575 1363,575 1363,574 L 1363,572 C 1363,572 1363,571 1363,571 1363,565 1364,560 1366,554 1366,552 1367,551 1368,549 1370,545 1373,542 1377,540 1380,538 1384,537 1389,537 1389,537 1389,537 1389,537 1397,537 1403,541 1403,546 1403,547 1403,548 1402,549 1402,550 1401,551 1400,551 1399,552 1398,552 1397,552 1397,552 1397,552 1396,552 1396,552 1395,552 1394,551 1394,551 1393,551 1393,550 1389,545 1386,542 1383,542 1380,542 1376,550 1376,568 L 1376,572 C 1376,576 1376,576 1378,576 L 1391,576 C 1391,576 1391,577 1391,577 1391,577 1391,578 1391,578 1391,578 1391,578 1391,578 1391,579 1391,580 1391,580 1390,581 1390,581 1389,582 L 1378,582 Z M 1404,596 C 1402,596 1401,596 1401,598 1401,598 1401,598 1401,599 1401,602 1402,605 1404,608 1405,611 1408,613 1411,615 1414,617 1417,618 1420,618 1420,618 1421,618 1421,618 1423,618 1425,617 1427,616 1429,615 1431,613 1432,611 1432,611 1432,611 1432,611 1433,611 1433,611 1433,612 1434,612 1434,612 1434,613 1434,613 1435,613 1435,613 1434,614 1434,615 1433,616 1431,619 1429,622 1425,624 1422,626 1418,627 1414,627 1414,627 1414,627 1414,627 1414,627 1414,627 1413,627 1409,627 1405,626 1402,624 1398,622 1395,619 1393,615 1391,612 1390,608 1390,604 1390,603 1390,603 1390,602 1390,598 1391,593 1393,589 1396,585 1399,582 1403,580 1407,577 1412,576 1416,576 1417,576 1417,576 1417,576 1420,576 1424,577 1426,578 1429,580 1431,582 1433,585 1434,587 1435,590 1435,593 1435,593 1435,594 1435,594 1435,595 1435,595 1435,596 1435,596 1431,597 1426,597 L 1404,596 Z M 1415,591 C 1416,591 1417,591 1418,591 1419,591 1420,591 1421,591 1422,591 1422,590 1422,590 1422,589 1422,589 1421,588 1421,588 1421,588 1421,588 1421,587 1421,585 1420,584 1420,583 1419,582 1418,581 1416,581 1415,580 1414,580 1414,580 1413,580 1413,580 1411,581 1409,581 1407,582 1405,583 1404,585 1403,587 1402,588 1401,590 1401,591 L 1403,591 1415,591 Z M 1440,623 C 1439,619 1438,615 1438,611 1438,611 1439,610 1439,609 1439,609 1439,609 1439,609 1439,608 1440,608 1440,608 1441,608 1441,608 1442,609 1442,609 1442,609 1442,609 1444,616 1449,622 1455,622 1456,622 1456,622 1456,622 1457,622 1458,622 1459,622 1460,621 1461,620 1461,619 1462,618 1462,617 1462,616 1462,616 1462,616 1462,616 1462,611 1458,608 1454,606 1449,604 1441,598 1441,591 1441,583 1449,575 1459,575 1459,575 1460,575 1460,575 1464,575 1467,576 1471,578 1472,581 1473,584 1473,588 1473,588 1473,589 1473,589 1473,590 1472,590 1472,590 1472,590 1471,590 1471,590 1471,590 1470,590 1470,590 1470,590 1469,590 1469,589 1467,584 1463,579 1459,579 1459,579 1458,579 1458,579 1457,579 1456,579 1455,580 1454,581 1453,581 1453,582 1452,583 1452,584 1452,585 1452,589 1455,592 1460,594 1464,596 1474,601 1474,611 1474,621 1464,627 1454,627 1454,627 1454,627 1453,627 1449,627 1445,626 1442,624 1441,623 1441,623 1440,623 L 1440,623 Z M 1500,581 C 1498,581 1498,581 1498,585 L 1498,604 C 1498,612 1498,619 1507,619 1507,619 1507,619 1507,619 1509,619 1510,619 1512,618 1512,618 1513,617 1513,617 1513,617 1514,617 1514,617 1514,617 1514,618 1515,618 1515,618 1515,618 1515,619 1515,619 1515,619 1515,619 1513,621 1512,622 1510,624 1507,625 1503,626 1500,626 1500,626 1499,626 1499,626 1487,626 1485,619 1485,611 L 1485,584 C 1485,580 1485,580 1483,580 L 1479,580 C 1478,580 1478,579 1478,579 1478,579 1478,578 1478,578 1478,578 1478,577 1478,577 1478,577 1478,576 1479,576 1481,575 1483,575 1485,573 1486,573 1487,572 1488,571 1491,569 1493,567 1495,564 1495,564 1495,563 1495,563 1495,563 1495,563 1496,563 1496,563 1496,563 1497,563 1497,563 1498,563 1498,563 1498,563 1498,563 1499,563 L 1499,571 C 1499,573 1499,573 1501,573 L 1513,573 1513,576 C 1513,576 1513,576 1513,576 L 1537,576 1537,580 1534,581 C 1531,581 1531,581 1534,588 L 1540,602 C 1540,605 1542,608 1543,610 1543,611 1544,611 1544,611 1544,611 1545,610 1545,609 1546,607 1547,606 1548,604 L 1552,596 C 1553,592 1555,588 1556,583 1557,579 1556,582 1554,581 L 1549,581 C 1549,581 1549,581 1549,581 1549,580 1549,580 1549,579 1549,579 1549,578 1549,578 1549,578 1549,578 1549,578 L 1571,578 1571,581 C 1569,582 1567,582 1565,583 1565,583 1564,584 1564,584 1562,586 1560,589 1559,591 1558,593 1557,595 1556,596 L 1550,609 C 1546,617 1535,639 1530,651 1529,651 1529,652 1529,652 1528,654 1527,655 1525,656 1524,657 1522,657 1520,657 1520,657 1520,657 1520,657 1520,657 1519,657 1519,657 1518,657 1517,657 1516,657 1515,656 1514,655 1514,654 1513,653 1513,652 1513,651 1513,651 1513,651 1513,651 L 1514,650 C 1514,646 1517,644 1520,644 L 1523,644 C 1523,644 1523,644 1523,644 1524,644 1525,644 1526,643 1527,643 1528,642 1528,642 1529,641 1529,640 1530,639 1532,635 1534,631 1534,626 1534,623 1533,620 1532,617 L 1522,590 C 1519,583 1518,581 1513,580 L 1511,580 1511,579 1500,581 Z"/>
         <path fill="rgb(0,0,0)" stroke="none" d="M 1575,557 C 1575,549 1575,548 1572,546 L 1570,546 1570,543 C 1570,543 1582,540 1586,537 1587,537 1587,537 1587,537 1588,537 1588,537 1588,537 L 1588,610 C 1588,620 1588,621 1593,621 L 1596,621 1596,625 1569,625 1569,621 1572,621 C 1576,621 1577,620 1577,610 L 1575,557 Z M 1613,596 C 1611,596 1611,596 1611,598 1611,598 1611,598 1611,599 1611,602 1612,605 1613,608 1615,611 1617,613 1620,615 1623,617 1626,618 1630,618 1630,618 1630,618 1630,618 1633,618 1635,617 1637,616 1639,615 1640,613 1641,611 1642,611 1642,611 1642,611 1642,611 1643,611 1643,612 1643,612 1644,612 1644,613 1644,613 1644,613 1644,613 1644,614 1643,615 1643,616 1641,619 1638,622 1635,624 1631,626 1627,627 1624,627 1623,627 1623,627 1623,627 1623,627 1623,627 1623,627 1618,627 1614,626 1611,624 1607,622 1604,619 1602,615 1600,612 1599,608 1599,604 1599,603 1599,603 1599,602 1599,598 1600,593 1603,589 1605,585 1608,582 1612,580 1616,577 1621,576 1626,576 1626,576 1626,576 1627,576 1630,576 1633,577 1635,578 1638,580 1640,582 1642,585 1643,587 1644,590 1644,593 1644,593 1644,594 1644,594 1644,595 1644,595 1644,596 1644,596 1641,597 1636,597 L 1613,596 Z M 1625,591 C 1626,591 1627,591 1628,591 1629,591 1630,591 1631,591 1631,591 1631,590 1631,590 1631,589 1631,589 1631,588 1631,588 1631,588 1631,588 1631,587 1631,585 1630,584 1629,583 1628,582 1627,581 1626,581 1625,580 1623,580 1623,580 1623,580 1623,580 1621,581 1618,581 1617,582 1615,583 1613,585 1612,587 1611,588 1611,590 1610,591 L 1612,591 1625,591 Z M 1717,577 C 1717,577 1718,578 1718,578 1719,579 1719,581 1719,582 1719,582 1719,583 1719,583 1719,587 1717,589 1716,589 1716,589 1716,589 1716,589 1715,589 1715,589 1715,588 1714,588 1714,588 1714,587 1714,587 1714,587 1714,587 1714,587 1714,587 1714,587 1712,585 1710,583 1708,582 1706,581 1704,580 1702,580 1700,580 1698,581 1696,582 1694,583 1692,585 1690,588 1689,590 1688,593 1688,596 1688,597 1688,597 1688,598 1688,599 1688,599 1688,599 1688,603 1689,606 1690,609 1692,611 1694,614 1697,615 1700,617 1703,618 1706,618 1706,618 1707,618 1707,618 1710,618 1712,617 1714,616 1716,615 1718,613 1719,611 1719,611 1719,611 1719,611 1720,611 1720,611 1721,611 1721,612 1721,612 1722,612 1722,613 1722,613 1722,613 1722,614 1721,614 1721,615 1719,619 1716,622 1712,624 1709,626 1705,627 1701,627 1701,627 1700,627 1700,627 1696,627 1691,625 1687,623 1686,622 1684,621 1683,620 1681,619 1680,617 1679,615 1677,611 1676,607 1676,603 1676,602 1676,602 1676,602 1676,602 1676,602 1676,602 1676,597 1677,592 1680,588 1682,584 1685,580 1690,578 1694,576 1699,574 1704,574 1704,574 1705,574 1706,574 1710,574 1713,575 1717,576 L 1717,577 Z M 1730,592 C 1730,587 1730,585 1727,583 L 1725,583 C 1725,583 1725,582 1725,582 1725,581 1725,581 1725,580 1731,579 1736,577 1741,574 1741,574 1741,574 1742,574 1742,574 1742,574 1743,574 L 1743,581 C 1747,578 1751,575 1755,575 1755,575 1755,575 1755,575 1757,575 1758,575 1759,575 1760,576 1760,577 1761,578 1761,579 1762,580 1762,581 1762,581 1762,581 1762,581 1762,582 1761,583 1761,584 1760,585 1759,586 1758,587 1757,588 1756,588 1755,588 1755,588 1755,588 1755,588 1754,588 1754,588 1753,588 1753,588 1752,588 1751,588 1751,588 1751,587 1750,587 1749,586 1747,586 1745,585 1742,585 1742,588 1742,594 L 1742,611 C 1742,621 1742,622 1746,622 L 1751,622 1751,626 1722,626 1722,622 1724,622 C 1728,622 1729,621 1729,611 L 1730,592 Z M 1778,596 C 1775,596 1775,596 1775,598 1775,598 1775,598 1775,599 1775,602 1776,605 1778,608 1779,611 1782,613 1784,615 1787,617 1791,618 1794,618 1794,618 1794,618 1795,618 1797,618 1799,617 1801,616 1803,615 1805,613 1806,611 1806,611 1806,611 1806,611 1806,611 1806,611 1806,611 1806,611 1807,611 1807,612 1808,612 1808,612 1808,613 1808,613 1808,613 1808,613 1808,614 1808,615 1807,616 1805,619 1802,622 1799,624 1796,626 1792,627 1788,627 1788,627 1788,627 1787,627 1787,627 1787,627 1787,627 1783,627 1779,626 1775,624 1772,622 1769,619 1766,615 1764,612 1763,608 1763,604 1763,603 1763,603 1763,602 1763,598 1765,593 1767,589 1769,585 1773,582 1777,580 1781,577 1785,576 1790,576 1790,576 1791,576 1791,576 1794,576 1797,577 1800,578 1802,580 1804,582 1806,585 1807,587 1808,590 1808,593 1808,593 1809,594 1809,594 1809,595 1808,595 1808,596 1808,596 1805,597 1800,597 L 1778,596 Z M 1789,591 C 1790,591 1791,591 1792,591 1793,591 1794,591 1795,591 1795,591 1795,590 1795,590 1795,589 1795,589 1795,588 1795,588 1795,588 1795,588 1795,587 1795,585 1794,584 1793,583 1792,582 1791,581 1790,581 1789,580 1787,580 1787,580 1787,580 1787,580 1785,581 1783,581 1781,582 1779,583 1777,585 1776,587 1776,588 1775,590 1775,591 L 1777,591 1789,591 Z M 1851,610 C 1851,617 1853,620 1857,620 1859,620 1860,620 1861,619 1863,618 1863,620 1861,621 1860,623 1859,624 1857,625 1855,626 1852,627 1849,627 1849,627 1849,627 1848,627 1846,627 1844,626 1843,625 1842,625 1841,624 1840,624 L 1838,622 1835,624 C 1835,624 1834,624 1834,624 1831,626 1828,627 1824,627 1824,627 1823,627 1823,627 1821,627 1819,626 1817,625 1816,624 1814,623 1813,621 1812,619 1811,617 1811,615 1811,615 1811,615 1812,615 1812,611 1813,607 1822,603 L 1836,598 C 1838,598 1838,596 1838,595 L 1838,592 C 1838,586 1837,580 1831,580 1831,580 1830,580 1830,580 1829,580 1828,580 1827,581 1826,582 1826,582 1825,583 1825,584 1824,585 1824,586 1824,586 1824,586 1824,586 1824,587 1824,588 1823,588 1823,589 1823,590 1822,590 1819,592 1817,592 1814,592 1812,592 1812,592 1812,591 1812,589 1812,586 1816,583 1818,581 1819,580 1821,579 1826,577 1830,575 1835,575 1845,575 1851,579 1851,590 L 1851,610 Z M 1839,605 L 1839,603 C 1837,603 1835,604 1834,605 1833,605 1832,605 1831,606 1830,606 1829,607 1828,609 1827,610 1827,611 1827,613 1827,613 1827,613 1827,613 1827,613 1827,613 1827,613 1827,614 1827,616 1828,617 1829,618 1829,619 1831,619 1832,620 1833,620 1834,620 1834,620 1834,620 1834,620 1834,620 1834,620 1835,620 1835,620 1836,620 1837,619 1838,619 1839,618 1839,617 1840,616 1840,616 1840,615 1840,614 1840,614 1840,614 L 1839,605 Z M 1883,581 C 1881,581 1881,581 1881,585 L 1881,604 C 1881,612 1881,619 1890,619 1892,619 1893,619 1895,618 1895,618 1895,617 1896,617 1896,617 1896,617 1897,617 1897,617 1897,618 1897,618 1897,618 1898,618 1898,619 1898,619 1898,619 1897,619 1896,621 1894,622 1892,624 1889,625 1886,626 1883,626 1882,626 1882,626 1882,626 1870,626 1868,619 1868,611 L 1868,584 C 1868,580 1868,580 1865,580 L 1861,580 C 1861,580 1861,579 1861,579 1860,579 1860,578 1860,578 1860,578 1860,577 1861,577 1861,577 1861,576 1861,576 1863,575 1865,575 1867,573 1869,573 1870,572 1871,571 1874,569 1876,567 1878,564 1878,564 1878,563 1878,563 1878,563 1878,563 1878,563 1879,563 1879,563 1880,563 1880,563 1881,563 1881,563 1881,563 1881,563 1881,563 L 1881,571 C 1881,573 1881,573 1884,573 L 1896,573 1896,576 C 1896,576 1896,577 1895,578 1895,578 1895,579 1894,579 L 1883,581 Z M 1948,613 C 1946,617 1943,621 1939,623 1935,625 1930,627 1925,627 1925,627 1924,627 1924,627 1919,627 1915,626 1911,623 1908,621 1904,618 1902,614 1900,611 1899,607 1899,602 1899,602 1899,601 1899,600 1899,596 1900,591 1903,587 1905,583 1908,580 1912,577 1916,575 1921,574 1925,574 1926,574 1927,574 1927,574 1932,574 1936,575 1940,577 1943,579 1946,582 1949,586 1951,590 1952,594 1952,599 1952,599 1952,600 1952,600 1952,605 1951,609 1948,613 Z M 1937,602 C 1937,593 1933,580 1924,580 1915,580 1913,586 1913,600 1913,613 1917,622 1925,622 1934,622 1937,612 1937,602 Z M 1964,592 C 1964,587 1964,585 1961,583 L 1960,583 C 1959,583 1959,582 1959,582 1959,581 1959,581 1960,580 1965,579 1970,577 1975,574 1975,574 1976,574 1976,574 1976,574 1977,574 1977,574 L 1977,581 C 1981,578 1985,575 1989,575 1989,575 1989,575 1990,575 1991,575 1992,575 1993,575 1994,576 1994,577 1995,578 1996,579 1996,580 1996,581 1996,581 1996,581 1996,581 1996,582 1996,583 1995,584 1994,585 1993,586 1992,587 1991,588 1990,588 1989,588 1989,588 1989,588 1989,588 1988,588 1988,588 1987,588 1987,588 1986,588 1986,588 1985,588 1985,587 1984,587 1983,586 1981,586 1980,585 1977,585 1976,588 1976,594 L 1976,611 C 1976,621 1976,622 1981,622 L 1986,622 1986,626 1957,626 1957,622 1959,622 C 1964,622 1964,621 1964,611 L 1964,592 Z M 2634,623 C 2633,619 2632,615 2632,611 2632,611 2632,610 2632,609 2632,609 2632,609 2632,609 2633,608 2633,608 2634,608 2634,608 2635,608 2635,609 2635,609 2635,609 2635,609 2638,616 2642,622 2649,622 2649,622 2649,622 2649,622 2651,622 2652,622 2653,622 2654,621 2655,620 2655,619 2656,618 2656,617 2656,616 2656,616 2656,616 2656,616 2656,611 2652,608 2648,606 2643,604 2634,598 2634,590 2634,582 2643,574 2653,574 2653,574 2653,574 2654,574 2657,574 2661,575 2664,577 2666,580 2666,584 2666,587 2666,588 2666,588 2666,589 2666,589 2666,589 2666,589 2665,590 2665,590 2665,590 2664,590 2664,590 2663,589 2663,589 2663,589 2663,589 2661,583 2657,578 2652,578 2652,578 2652,578 2652,578 2651,578 2649,579 2648,579 2647,580 2647,581 2646,582 2645,583 2645,584 2645,585 2645,585 2645,585 2645,585 2645,589 2649,591 2654,593 2658,596 2667,601 2667,611 2667,621 2658,626 2648,626 2647,626 2647,626 2646,626 2642,626 2638,625 2634,623 2634,623 2634,623 2634,623 Z M 2695,610 C 2695,620 2695,621 2700,622 L 2702,622 2702,625 2676,625 2676,622 2678,622 C 2682,622 2682,620 2682,610 L 2682,592 C 2682,587 2682,585 2679,583 L 2678,583 C 2677,583 2677,582 2677,582 2677,581 2677,581 2678,580 2683,579 2689,576 2694,574 2694,573 2694,573 2695,573 2695,573 2695,573 2696,574 L 2696,589 2695,610 Z M 2681,550 C 2681,548 2681,547 2682,546 2682,545 2683,544 2685,543 2686,542 2687,542 2689,542 2690,542 2691,542 2693,543 2694,544 2695,545 2695,546 2696,547 2696,548 2696,550 2696,551 2696,553 2695,554 2695,555 2694,556 2693,557 2691,557 2690,558 2689,558 2688,558 2688,558 2688,558 2687,558 2685,557 2684,557 2683,556 2682,555 2681,554 2681,553 2680,551 2680,550 2680,550 2680,550 2680,550 L 2681,550 Z M 2728,610 C 2728,620 2728,621 2733,622 L 2735,622 2735,625 2709,625 2709,622 2711,622 C 2716,622 2716,620 2716,610 L 2716,592 C 2716,587 2716,585 2713,583 L 2711,583 C 2711,583 2711,582 2711,582 2711,581 2711,581 2711,580 2717,579 2722,576 2727,574 2728,573 2728,573 2728,573 2729,573 2729,573 2729,574 2729,575 2729,576 2729,577 2729,577 2729,578 2729,579 2730,579 2731,578 2732,577 2737,575 2741,573 2746,573 2756,573 2761,580 2761,590 L 2761,609 C 2761,618 2761,620 2766,620 L 2769,620 2769,624 2742,624 2742,620 2744,620 C 2748,620 2749,618 2749,609 L 2749,592 C 2749,585 2746,580 2739,580 2739,580 2739,580 2739,580 2737,580 2735,581 2734,582 2732,583 2731,583 2731,584 2729,587 2729,588 2729,592 L 2728,610 Z M 2818,578 C 2818,579 2819,580 2819,582 2819,582 2819,582 2819,582 2819,586 2817,588 2816,588 2815,588 2815,588 2815,588 2815,588 2815,588 2814,588 2814,588 2813,587 2813,587 2813,587 2813,587 2813,587 2813,587 2813,587 2813,587 2812,584 2810,582 2807,581 2806,580 2804,579 2802,579 2795,579 2787,586 2787,598 2787,598 2787,599 2787,599 2787,603 2788,606 2790,609 2791,611 2793,614 2796,615 2799,617 2802,618 2805,618 2806,618 2806,618 2807,618 2809,618 2812,617 2814,616 2816,615 2817,613 2819,611 2819,611 2819,611 2819,611 2819,611 2820,611 2820,611 2821,612 2821,612 2821,612 2821,613 2821,613 2821,613 2821,613 2821,613 2821,613 2821,614 2821,615 2820,615 2818,619 2815,622 2812,624 2808,626 2804,627 2800,627 2800,627 2800,627 2799,627 2795,627 2790,626 2786,623 2785,623 2783,622 2782,620 2781,619 2779,617 2778,616 2776,612 2775,607 2775,602 2775,602 2775,602 2775,602 2775,597 2776,593 2779,588 2781,584 2785,580 2789,578 2793,576 2798,574 2803,574 2804,574 2805,574 2805,574 2806,574 2806,574 2806,574 2810,574 2813,575 2816,576 2817,576 2817,577 2818,578 Z M 2839,596 C 2837,596 2836,596 2836,597 2836,598 2836,598 2836,598 2836,602 2837,605 2839,608 2841,611 2843,613 2846,615 2849,617 2852,617 2855,617 2855,617 2856,617 2856,617 2858,617 2860,617 2862,616 2864,615 2866,613 2867,611 2867,611 2867,611 2867,611 2868,611 2868,611 2869,611 2869,612 2869,612 2869,612 2870,613 2870,613 2870,613 2869,614 2869,615 2868,616 2867,619 2864,622 2860,624 2857,626 2853,627 2849,627 2849,627 2849,627 2849,627 2848,627 2848,627 2848,627 2844,627 2840,626 2836,624 2833,622 2830,619 2828,615 2826,612 2824,608 2824,603 2824,603 2824,602 2825,602 2825,597 2826,593 2828,589 2830,585 2834,581 2838,579 2842,577 2846,575 2851,575 2851,575 2852,575 2852,575 2855,575 2858,576 2861,578 2864,579 2866,581 2867,584 2869,587 2870,589 2870,592 2870,593 2870,593 2870,594 2870,594 2870,595 2870,595 2870,596 2866,597 2861,597 L 2839,596 Z M 2850,591 C 2851,591 2852,591 2853,591 2854,591 2856,591 2857,591 2857,590 2857,590 2857,589 2857,589 2857,588 2857,588 2857,588 2857,587 2857,587 2857,586 2856,585 2856,583 2855,582 2854,581 2853,581 2852,580 2850,580 2849,580 2849,580 2848,580 2848,580 2846,580 2844,580 2842,581 2840,582 2839,584 2838,586 2837,587 2836,589 2836,591 L 2838,591 2850,591 Z M 2912,607 C 2912,619 2912,620 2920,621 L 2923,621 2923,624 2888,624 2888,621 2891,621 C 2899,621 2899,621 2899,607 L 2899,568 C 2899,560 2899,556 2893,556 L 2887,556 C 2887,556 2887,556 2887,556 2887,555 2886,555 2886,554 2886,554 2887,554 2887,553 2887,553 2887,553 2887,553 2895,552 2904,549 2911,545 2911,545 2912,545 2912,545 2912,545 2912,545 2913,545 L 2913,560 2912,607 Z M 2980,549 C 2983,550 2985,553 2987,555 2988,556 2988,557 2989,558 2992,564 2994,570 2994,576 2994,577 2994,578 2994,579 2994,588 2991,596 2987,604 2983,610 2979,615 2974,619 2971,621 2968,623 2966,625 2959,628 2951,631 2943,633 2943,633 2943,633 2943,632 2943,632 2943,631 2943,631 2943,630 2943,630 2943,629 2943,629 2943,629 2943,629 2947,628 2952,626 2955,624 2957,623 2959,621 2961,620 2965,616 2969,612 2972,607 2977,598 2979,589 2979,580 2979,579 2979,578 2979,577 2979,563 2976,551 2966,551 2957,551 2955,556 2955,567 2955,577 2960,588 2968,588 L 2972,588 C 2972,588 2972,588 2972,588 2972,588 2973,589 2973,589 2973,589 2972,590 2972,590 2972,590 2972,590 2972,591 2972,591 2971,591 2971,591 2968,593 2964,594 2961,594 2961,594 2960,594 2960,594 2957,594 2953,593 2950,591 2947,590 2945,587 2943,584 2941,581 2940,578 2940,574 2940,573 2941,573 2941,572 L 2941,572 C 2941,567 2942,563 2944,559 2946,555 2950,551 2954,549 2958,547 2962,545 2967,545 2971,545 2976,547 2980,549 Z M 3051,543 C 3050,546 3049,549 3048,551 3048,552 3047,553 3046,554 L 3020,557 C 3016,557 3016,557 3015,561 L 3015,565 C 3015,566 3015,567 3018,568 L 3027,569 C 3036,571 3055,576 3055,596 3055,615 3028,632 3008,632 3008,632 3007,632 3007,632 3007,631 3007,631 3007,630 3007,630 3007,629 3007,629 3007,629 3008,628 3008,628 3026,626 3043,617 3043,600 3043,583 3025,579 3011,578 3009,578 3008,578 3009,574 L 3016,550 C 3016,548 3016,547 3019,546 L 3051,543 Z M 3116,573 C 3114,576 3111,579 3108,581 3107,581 3106,582 3105,582 3106,583 3107,583 3108,584 3112,586 3115,589 3118,593 3120,597 3121,601 3121,606 3121,620 3109,627 3095,627 3081,627 3068,622 3068,607 3069,604 3070,600 3071,597 3073,594 3076,591 3080,589 3081,588 3083,587 3085,587 3084,586 3083,586 3082,585 3079,583 3076,580 3074,577 3072,574 3071,570 3070,567 3071,563 3072,560 3073,556 3075,553 3078,550 3082,548 3085,546 3089,545 3093,545 3094,545 3095,545 3095,545 3109,545 3119,552 3119,564 3118,567 3117,570 3116,573 Z M 3108,610 C 3108,600 3101,594 3090,589 3088,590 3086,593 3084,595 3082,599 3081,602 3081,606 3081,606 3081,606 3081,606 3081,607 3081,607 3081,608 3081,610 3082,613 3083,615 3084,617 3086,619 3088,620 3091,621 3093,622 3095,622 3095,622 3096,622 3096,622 3098,622 3100,621 3102,620 3103,619 3105,618 3106,616 3107,614 3108,612 3108,610 3108,610 3108,610 3108,610 L 3108,610 Z M 3084,563 C 3084,571 3093,576 3100,579 3102,578 3104,576 3105,574 3107,571 3108,568 3108,565 3108,564 3108,564 3108,564 3108,563 3108,563 3108,563 3108,561 3107,558 3106,556 3105,554 3103,553 3101,552 3099,551 3098,550 3096,550 3096,550 3096,550 3096,550 3093,550 3091,551 3090,552 3088,553 3086,554 3085,556 3084,558 3084,560 3084,562 3084,562 3084,563 3084,563 L 3084,563 Z"/>
        </g>
       </g>
      </g>
     </g>
    </g>
   </g>
  </g>
 </g>
</svg>